-----------------------------------------------------------------------------------
             The Three Burials of Melquiades Estrada 2005 720p BRRiP XviD AC3 Multisubs nekanilla
___________________________________________________________________________________

---------------------------------------INFO----------------------------------------

Movie name: The Three Burials of Melquiades Estrada
Country and year of production: USA, France / 2005
Speech language / subtitle: English, Spanish / Greek, English, Spanish, French, Italian, Swedish, Arabic SRT
Genre: Drama 
Movie Length: 121 minutes
Writer: Guillermo Arriaga
Directed by: Tommy Lee Jones 

Cannes Film Festival
Win: Best Actor - Tommy Lee Jones
Win: Best Screenplay - Guillermo Arriaga
___________________________________________________________________________________

---------------------------------------PLOT----------------------------------------
In Texas nearby the border of Mexico, the newcomer arrogant border patrolman Mike Norton mistakenly kills the Mexican cowboy Melquiades Estrada and buries him in the desert. When Melquiades's body is accidentally found one week later, his best friend, the ranch foreman Pete Perkins, claims the body to fulfill his promise and bury Melquiades in his hometown Jimenez and presses the local sheriff Belmont to find the killer. However, Melquiades is not delivered to Pete because he is not his relative, and his body is reburied in the local cemetery. When Rachel discloses the identity of the killer, Pete kidnaps Mike and forces him to dig the grave and bring the body to Melquiades's family in Mexico. While in their journey to Mexico, the sad reality of the hopeless Mexicans that live in the proximity of the border with USA is disclosed.

Written by Claudio Carvalho

___________________________________________________________________________________

---------------------------------------CAST----------------------------------------

Tommy Lee Jones as Pete Perkins
Barry Pepper as Ptmn. Mike Norton
Julio Cedillo as Melquiades Estrada
Dwight Yoakam as Sheriff Belmont
January Jones as Lou Ann Norton
Melissa Leo as Rachel
Vanessa Bauche as Mariana
Levon Helm as Old Man with Radio
Mel Rodriguez as Captain Gomez
Cecilia Suarez as Rosa
Ignacio Guadalupe as Lucio
___________________________________________________________________________________

------------------------------------MEDIA INFO-------------------------------------
     
                                 Includes sample
General
Complete name                  : The Three Burials of Melquiades Estrada 2005 720p BRRiP XviD AC3.avi
Format                         : AVI
Format/Info                    : Audio Video Interleave
Format profile                 : OpenDML
Format settings                : rec
File size                      : 3.10 GiB
Duration                       : 2h 1mn
Overall bit rate               : 3 650 Kbps
Writing application            : AVI-Mux GUI 1.17.8.3, Feb 16 201019:42:50

Video
ID                             : 0
Format                         : MPEG-4 Visual
Format profile                 : Advanced Simple@L5
Format settings, BVOP          : 2
Format settings, QPel          : No
Format settings, GMC           : No warppoints
Format settings, Matrix        : Default (H.263)
Codec ID                       : XVID
Codec ID/Hint                  : XviD
Duration                       : 2h 1mn
Bit rate                       : 3 197 Kbps
Width                          : 1 280 pixels
Height                         : 544 pixels
Display aspect ratio           : 2.35:1
Frame rate                     : 24.000 fps
Color space                    : YUV
Chroma subsampling             : 4:2:0
Bit depth                      : 8 bits
Scan type                      : Progressive
Compression mode               : Lossy
Bits/(Pixel*Frame)             : 0.191
Stream size                    : 2.71 GiB (88%)
Writing library                : XviD 1.2.1 (UTC 2008-12-04)

Audio
ID                             : 1
Format                         : AC-3
Format/Info                    : Audio Coding 3
Mode extension                 : CM (complete main)
Codec ID                       : 2000
Duration                       : 2h 1mn
Bit rate mode                  : Constant
Bit rate                       : 448 Kbps
Channel(s)                     : 6 channels
Channel positions              : Front: L C R, Side: L R, LFE
Sampling rate                  : 48.0 KHz
Bit depth                      : 16 bits
Compression mode               : Lossy
Stream size                    : 389 MiB (12%)
Alignment                      : Aligned on interleaves
Interleave, duration           : 64 ms (1.54 video frames)
Interleave, preload duration   : 192 ms
Title                          : The.Three.Burials.of.Melquiades.Estrada.Audio
___________________________________________________________________________________

___________________________________________________________________________________

-----------------------------------SCREENSHOTS-------------------------------------
                          http://i.imgur.com/jWi9Tji.png
                          http://i.imgur.com/B1z3SxY.png
                          http://i.imgur.com/TJcWa9w.jpg
                          http://i.imgur.com/7c409uN.jpg
___________________________________________________________________________________

                                Source: The.Three.Burials.of.Melquiades.Estrada.2005.DEU.BluRay.Remux.1080p.AVC.DTS-HD.MA.5.1-HiFi

                                Rip   : By   nekanilla	